<?xml version="1.0" encoding="iso-8859-1"?>
<!-- Generator: Adobe Illustrator 16.0.0, SVG Export Plug-In . SVG Version: 6.00 Build 0)  -->
<!DOCTYPE svg PUBLIC "-//W3C//DTD SVG 1.1//EN" "http://www.w3.org/Graphics/SVG/1.1/DTD/svg11.dtd">
<svg version="1.1" id="Capa_1" xmlns="http://www.w3.org/2000/svg" xmlns:xlink="http://www.w3.org/1999/xlink" x="0px" y="0px"
	 width="48.429px" height="48.429px" viewBox="0 0 48.429 48.429" style="enable-background:new 0 0 48.429 48.429;"
	 xml:space="preserve">
<g>
	<g>
		<path d="M47.773,19.34L28.883,0.45c-0.652-0.653-1.778-0.587-2.514,0.148L0.804,26.164c-0.734,0.734-0.801,1.859-0.148,2.514
			l18.891,18.892c0.223,0.223,0.507,0.33,0.805,0.388c0.33,0.291,0.76,0.473,1.234,0.473h22.832c1.039,0,1.882-0.843,1.882-1.882
			c0-1.038-0.843-1.883-1.882-1.883H24.813l22.812-22.812C48.359,21.118,48.427,19.993,47.773,19.34z M29.709,35.039L13.185,18.514
			l-2.66,2.66L27.049,37.7l-6.024,6.023L4.499,27.199L27.403,4.294L43.93,20.819L29.709,35.039z"/>
	</g>
</g>
<g>
</g>
<g>
</g>
<g>
</g>
<g>
</g>
<g>
</g>
<g>
</g>
<g>
</g>
<g>
</g>
<g>
</g>
<g>
</g>
<g>
</g>
<g>
</g>
<g>
</g>
<g>
</g>
<g>
</g>
</svg>
